<mxfile host="Electron" agent="Mozilla/5.0 (X11; Linux x86_64) AppleWebKit/537.36 (KHTML, like Gecko) draw.io/24.7.17 Chrome/128.0.6613.36 Electron/32.0.1 Safari/537.36" version="24.7.17">
  <diagram name="Page-1" id="-iYxys-qZHivKRTxRQhH">
    <mxGraphModel dx="965" dy="560" grid="1" gridSize="10" guides="1" tooltips="1" connect="1" arrows="1" fold="1" page="1" pageScale="1" pageWidth="850" pageHeight="1100" background="#1e2129" math="0" shadow="0">
      <root>
        <mxCell id="0" />
        <mxCell id="1" parent="0" />
        <mxCell id="48x9F1mXmifq3sj9QLIl-29" value="" style="endArrow=classic;html=1;rounded=0;" edge="1" parent="1">
          <mxGeometry width="50" height="50" relative="1" as="geometry">
            <mxPoint x="500" y="620" as="sourcePoint" />
            <mxPoint x="500" y="538.5" as="targetPoint" />
          </mxGeometry>
        </mxCell>
        <mxCell id="48x9F1mXmifq3sj9QLIl-21" value="" style="endArrow=classic;html=1;rounded=0;" edge="1" parent="1">
          <mxGeometry width="50" height="50" relative="1" as="geometry">
            <mxPoint x="390" y="484" as="sourcePoint" />
            <mxPoint x="290" y="484" as="targetPoint" />
          </mxGeometry>
        </mxCell>
        <mxCell id="b66CwS1TbO1OavZcbPs1-16" value="" style="endArrow=classic;html=1;rounded=0;" parent="1" edge="1">
          <mxGeometry width="50" height="50" relative="1" as="geometry">
            <mxPoint x="290" y="496" as="sourcePoint" />
            <mxPoint x="390" y="496" as="targetPoint" />
          </mxGeometry>
        </mxCell>
        <mxCell id="48x9F1mXmifq3sj9QLIl-17" style="edgeStyle=orthogonalEdgeStyle;rounded=0;orthogonalLoop=1;jettySize=auto;html=1;" edge="1" parent="1">
          <mxGeometry relative="1" as="geometry">
            <mxPoint x="487.26" y="540" as="sourcePoint" />
            <mxPoint x="487.26" y="620" as="targetPoint" />
          </mxGeometry>
        </mxCell>
        <mxCell id="48x9F1mXmifq3sj9QLIl-22" value="&lt;font style=&quot;font-size: 9px;&quot;&gt;git pull&lt;/font&gt;" style="edgeLabel;html=1;align=center;verticalAlign=middle;resizable=0;points=[];labelBackgroundColor=#1E2129;" vertex="1" connectable="0" parent="48x9F1mXmifq3sj9QLIl-17">
          <mxGeometry x="-0.6201" relative="1" as="geometry">
            <mxPoint x="7" y="8" as="offset" />
          </mxGeometry>
        </mxCell>
        <mxCell id="b66CwS1TbO1OavZcbPs1-2" value="" style="rounded=0;whiteSpace=wrap;html=1;" parent="1" vertex="1">
          <mxGeometry x="390" y="420" width="300" height="120" as="geometry" />
        </mxCell>
        <mxCell id="ZmxOSKaFQAJhcJr6SPo7-6" value="Me" style="shape=umlActor;verticalLabelPosition=bottom;verticalAlign=top;html=1;outlineConnect=0;" parent="1" vertex="1">
          <mxGeometry x="250" y="459.5" width="30" height="60" as="geometry" />
        </mxCell>
        <mxCell id="48x9F1mXmifq3sj9QLIl-4" value="&lt;b&gt;VPS&lt;/b&gt;" style="text;html=1;align=center;verticalAlign=middle;resizable=0;points=[];autosize=1;strokeColor=none;fillColor=none;" vertex="1" parent="1">
          <mxGeometry x="646" y="417" width="50" height="30" as="geometry" />
        </mxCell>
        <mxCell id="48x9F1mXmifq3sj9QLIl-5" value="" style="endArrow=none;dashed=1;html=1;rounded=0;" edge="1" parent="1" source="ZmxOSKaFQAJhcJr6SPo7-5">
          <mxGeometry width="50" height="50" relative="1" as="geometry">
            <mxPoint x="329.52" y="535" as="sourcePoint" />
            <mxPoint x="330" y="420" as="targetPoint" />
          </mxGeometry>
        </mxCell>
        <mxCell id="48x9F1mXmifq3sj9QLIl-9" value="" style="shape=image;verticalLabelPosition=bottom;labelBackgroundColor=default;verticalAlign=top;aspect=fixed;imageAspect=0;image=data:image/png,iVBORw0KGgoAAAANSUhEUgAAAlgAAAJYCAMAAACJuGjuAAAABGdBTUEAALGPC/xhBQAAACBjSFJNAAB6JgAAgIQAAPoAAACA6AAAdTAAAOpgAAA6mAAAF3CculE8AAAC8VBMVEUyMzA0NTJJSkhiY2Fyc3F2d3WEhYOIiYeSkpGampmfoJ6YmZePkI5/gH5wcW9gYV5QUU44OTY5OjdTVFFpaWd7fHqNjYyfn56TlJKKi4l6e3lrbGpZWlhISUaZmZi0tbTNzc3l5eX8/Pz////r6+vQ0dC3t7Zub21KS0g1NjNXWFWBgYCkpaO9vbzV1dXu7u76+vrh4eHIyMerrKuGh4U+Pzw7PDlsbWqWl5XBwcDx8fHExcRnaGY8PTqmpqXQ0M/39/fi4uKGhoRWV1VLTEm7u7r19fX9/f3W1tZbXFn+/v7w8PBJSUdBQj9kZWJhYmBfYF1DREFRUlCdnZzb29rq6uqoqadtbWuztLPU1dSQkY9NTUvx8fAzNDF9fXvo6OdAQT+wsa/19fRFRkP7+/uHiIby8vLU1NOFhYQ8PTtycnD5+fm4ubiDhIKgoZ/d3d2np6ZMTUrX19aLjIo6OzitraxSU1C6urlzdHLa2to/QD1ERUKysrG8vbzY2diCgoCvr67Jycnt7e1+fnyVlZRERUPGxsXOzs1UVVLMzcxdXlzn5+f4+Pjg4eBeX13Kysk9Pju+vr12dnRCQ0A3ODVGR0T09PR0dXM2NzS3uLdHSEVPUE2cnZvp6elZWVfs7Oy/wL/29vZxcW95eXe/v758fXvk5OPCwsGjpKJjZGKrq6ptbmzY2Nd4eXfj4+NlZmS1tbRvcG7c3dySk5FNTkxVVlTExMNdXVuvsK+zs7KxsbClpaTv7+/c3NtRUU+2trXAwcDT09JoaWZVVVOenp3m5ubg4N/f39+5ubibnJphYV9mZ2Xk5eROT0ynqKfZ2dnHx8bo6eh3eHaOj41AQT7MzMt6eniKiohYWVbS0tKhoaCOjo2AgX+MjYvz8/OXmJZlZWOjo6Kqqqmsravt7ezIycjPz87FxcVaW1lcXVqWlpXe3t6urq2RkZCpqaiioqHR0dGJiYjLy8pqa2l1dXO7vLvDw8Kbm5ppamh+f32UlZOeCzNXAAAAAWJLR0QjKmJsOgAAAAd0SU1FB+gGHgIEC/l/LqEAABQgSURBVHja7d15fBXVwcbxe1niNUIkgYAaSCQDQlAhqMSwQyVcuMgqqyE1QIxgsAZMWFU0CC6sQoC8YmTVgCgqa0VAlIK4IKK1CK244Far1tb3rbZ/vX2p7UfIcs85c86Zwff3/ZvMfeaeh3vnnpk5EwgAAAAAAAAAAAAAAAAAAAAAAAAAAAAAAAAAAAAAAAAAAAAAAAAAAAAAAAAAAAAAAAAAAAAAAAAAAAAAAAAAAAAAAAAAAAAAAAAAAAAAAAAAAAAAAAAAAAAAAAAAAAAAAAAAAAAAAAAAAAAAAAAAAAAAAAAAAAAAAAAAAAAAAAAAAAAAAAAAAAAAAAAAAAAAAAAAAAAAAAAAAAAAAAAAAAAAAAAAAAAAAAAAAAAAAAAAAAAAAAAAAAAAAAAAAAAAAAAAAAAAAAAAAAAAAAAAAAAAAAAAAAAAAAAAAAAAAAAAAAAAAAAAAAAAAAAAAAAAAAAAAAAAAAAAAAAAAAAAAAAAAAAAAAAAAAAAAAAAAAAAAAAAAAAAAAAAAAAAAAAAAAAAAAAAAAAAAAAAAAAAAAAAAAAAAAAAAAAAAAAAAAD4TbBW7Tp1Y84LnR8be0GoXv24CxvEexsooWGjuokxjUNNYmMvCl18SVLTZkFG6ZzSrE5yyqXNU51KWrS87KJWra3nSWtz+RVXtm1XOU96+6uuvqZ2B0bM/zKuzezYwqlZp86ZXbraCtQ6sVv3HlEC9Uz5xXV8ePlYr5is3o6YcJ/kvsbHMtg3uU9EMFC/rJjrdbxm/wGNajYwQ8//4EFRXmfA4J9Jq4bcMNSRM2z4AIPdCo4Y2U4uT2TUjdluD+OuTo36MqOTNOzdJZ2ivk5qZs6536qEX14acRS06HadoW/A5JtU8jhtL85187JjRF5j7DjXu9c3T+SFbj7Xa9VweL6j7JbxE7R/WN3aOaycp2BiI+X/6cECoZe4zfUe/krodW4/x2uVoj6K//ofXDhJZ56cuMnu8jjt7yhSe+kOYtu/wPU+Fgu9Tu9zuVZTLnNZq9OHA1PbaKvVtOnu8zjtLphBsbw0804NtTp94HyXnmrVvltPHic/eQbF8krOrNGONpGJ7r8Qc++J6AuUf2M8xfJEg3sdrdILXc6B1y3RG+im2TkUy7rgfemObiWJLgLNmas9j3P/AxTLsv6dHRMenKJ8dDXMRJ68wgyKZdND8xwz5jdWmkXKqZdqKNCChRTLnpvTHWMW1ZLPs/hhc3lSk9MolqVfg00ck/KXyAZa2sdooFuyKZaVXnVzDCsulQq0bKjhPMtXUCzzyv7LMa77IxKBVjY3nifyaJBime5VR8eC8seEAzVcZSPQ6gyKZdbVjhVr1grmGdzTTqDptSiWSZmOJeHxQnky2toKdNMUimXOuoitcXQi9UTm/9dby+OUPEaxTBmQ7liUHD1Qoc08nQZRLDNmzHOsejxaoLV28/QbR7GMmGh3HJ0nop13LrEc6AaKZUKiY1vNlwjnVNjOs5piGdA63/Y4Dqs50HjrRd9AsQxYbX0c69f8RTjWdp5OyyiWfhut9yql5kBP2s4T3sSvQgOnnlvaHsenEmoMNCTPdqCLmMcy4Gnbw9gvys0V620HWp1DsQyce95seRhTn6k50EDbvbo9+h3bFEvebNvjeEeUQJ0t5xnbkJPQJqjfCBrupPJXz0bJ84D6ScuCNSp78VyAYpk4SSg/Elvu3LpiYevTB+AJudu2J53XbccC4fumoxy4q1y90+PBwpuTrht3+oq9DuO27Vyy9deXis/cC5WBYkl7XvLAe9eKKu9Qz137wmSRcu2Odld0guRk7Z5HB1V5S8Te214sF/n7fVxBasQEqW+Ply6p6eb03Jj7o32NhV+OFugSmTx5zz9U07b2/+ZAtC0cXBygWF7PNbwSF3VzvS6q+Tdm9CuxZM4CHFoZdY5uY/EatwfuFEvFIeFRjPxKaCmN4NNPVb+NiVEnjDLmCwcqiRPaw6XnV7/ASaROgGKZmcRaLjqMa1YIbzTp/mq2MT36fQu3CvfqbuHVv7s2rm6551cDFMuM10SHcf7rMpuNe6PKM72Ho//lm6KBjuRK5ClKrnKpx7eCFMuQ+0S/B1fIbTchs/IS7GGRRYX3CAY6Krkm9eF9lbfRU3wFNoolaYfgOA6X3nKtudJnev9phuDsaLi2dKBNZ88+9N4eoFimCN4SWqKwcFpOzJnPHFgvsthMF8Gi71LY1w5nDlrk7QDFMqWZ4Di+o7T1lT+9HmeL0LNQ6gmex1Z7bM/b/X6yjdgAxTJG8AOix2/VNh989D/fbPkNhP7iHrFADyvu7yPdFQ7cKZY8wWvL9ym/QKsfT9CEW4n9+3fFAv1ONU9a7I9bOLA0QLHMEVwO65j6K+z918+8TMF/fkAskIvHFD1++ufqmvcCFMugXWLv1wAXL9H1zrCzJiT6r8Xm3cvd7PN7Qx1n88IAxTJJ8Pa9Za5eZGZT4WVkJ4jleddVnpwG+6VXQ6VYcrqLvV8JtvK0Fsuz3vobRbHkiK0UFLH2eLwGYuM3kWL5nOAJlAm28mwXy1NBsXxOcO3YbFt59ovlOU6xfO4lsffrVlt5ssXy9A5SLH8TfBjTCVt5BgueYmpKsfxtn9j7Nc/W0XuRYLGaUCx/E13YvZWlPDmCd5GtKqJYvjZc9GZAWwc1/QQDbaVYvvZ70QuBQ5YCjRLMU7CdYvmZ8BKy6QPsBBJeC3X6YorlY/tFx9HJf89KoEeFA92bQLH8K0F8AY78jTYC/UH8btXj/SmWfy0QH8iC8Rby9JW4D/rgdRTLt8ZIDKSTtcx4njSZZW17vJ9GsXzqcpliOSfvMD7tcJVUoCMXUix/auDIafua4UAfyOUJXz2HYvnSMMlmOXPNfkh8KJunx0dzKJYPDXccX1UrKP8QHRvVoliyajsK+sw2d9T8sUKe9JQ2FMtnctSeJ9ciOddQoAFKeZzudYMUy1euUBtIp/cpM58SwXLFQD3fyaVYPrI37KjqE2PitMoHynkKsgZSLP/o6Kj75IbW2vMMnu8i0Kj68RTLJ55x3Ah/Gqf78tJTrgKdLG7oXbE+i3XryM+nWIE+jjsL3p+hNc+UsLs84c6tgh4Vy5Zzo1hdXO9nQZbWqa1drgOVJw+mWN7boWFXdR7I63jAakFWI4rltSlaHjyZX6jtvtZMLe/+5JgMiuWtbnp2N7wvSc/BTVFzPYFGf7SSYnmp6KCuPd4c0nJd58CwpjzhT+umUSzv9NX3FOaCLB1X1nykbxCG6TiQp1iKXtW528d/6XqWMn6LxjwFKYMolkfS7tW64+2aNHMZqOFyrYEm1y+lWJ7I7al31/OydroLlBTWG+gTV9djUCxl28dq3vnI5+5mTbdqH40NMymWB5IKtO9/54dc5Mkp1p5nzYnBFMu+Oqn634GOQ9TzBJ81MCLnZ1As65aE9b8FecXqP/aDhwyMybCYIMWybV26gTdh9Hjl62pKLzMxKm2/oFjWL3RYbuJt6P6A8nHWCRN5Ugu7UizL/viJifeh4Evl8yqhiIlAT3ShWJY1O27knbhlm2qgfz8/TPNcSGEpxbIr/h4jb8Vy5SfBNdhiJFDblRTLslm9jbwZV6heUjPhWSN5Tl5LsSyb9JmRd+Mt5Uvjl/QzkSccoli2T0lnFph4O/6kfKDV7HMj43NPGsWybOVbJt6PVeprHcfdZCJQRTzFsixn9ioDb0iJ+hK5HYYbOOPkdE6gWLZ1PX+NgWn4x9QDNawwMESL4imWdY98laf9LWnh5lae1w1Mst0VpFj29SrUfhS/eaabQLXf1T5IpyiWJ1MP3XRfAHjc3QXxjebqPslzI8XyxIyvj+p9V75xGWj7GL0fo6kfUixvBOM+1fq2JLoNNDikdfLhk2UUyys7X9R4qdZY9/cnlyaO0jhO9wYplmfmhMq1vS8P6lhSq2+Kvt+s4ymWh0rravu1/wctgcYl79aUZ3kziuWpvil6pr9Hz9STJ372dD0jNVVPseZ3cqvg/2exAoFJf9Zy4d1X2gK9vE/LLSCvaykWa5C6+pTQcOVd3mF9gbbFdnIfqCXF8oHaWa4/JZ7XmWdCzJ9cNyuJYvnBkI9dXmYaHqI1T/C5T11OyI+iWP6wOMbdam3f6A60t9Dd1Ri1KZZfJuSnuTkjvDxDe6Dc0DwXgZ6lWD76RizsoTyQs8ycfFL+RiwYTLF8pL/yp8QoM4EeUz5F3Zhi+esbMe4WtYHMNhRocLLaTT3fUizfTT9UqHwB/cVYnoyYBSo/VOdQLN9puk9+IN8ymCctUWHpy/oUy4cWLpIdx/QJJvOUxUg/R/1KiuVL1+7ROtntWlFIchK3Xw7F8qWykNwVUl+aDjRJ8lP0MMXyqffulhnHfcbz5MRIfWito1h+FS+zMswwC4GmbJYItIFi+VbObyQGcpyFQEslHiD7V4rlYxvEB/JCG3n6i/+maE6xfCzYWXggn7YSqJfwRHxekGL52FLhgfzaTqDfCTe9FsXys2s8uyarmuO+S0UDDaRYflbaQnAc77IU6DvRYv03xfI10cdqdrb1U1X0xOFsiuVrDwmO47u2Al0hGGg8xfL3D0PBew9H2QrUyu21fhTLHwTvxd9jK0+2YLHuo1j+liI2DgusfYQKrpWTTLH8bbjYOAy1Fkhwau0iimVg9qnP7Sm9NG2ridg4tK1pGzNOte+ztUxToANigX5Pscz8cOo3QM/GNrj/VZh7+//9iwdz9QQSnFmLoVi6Hfvx5rpELVv7Smwc/qeGSdYfb4Y9qGf1EMHLslZQLM1G/Hvdq0iyjtX25oqNw8fVT2mO/M/1whs15Pmt4K/CjRRLr6Y/+R/9fKn77b3h9trkD35yh3Jd93kGub02mWIpuf6M5UW7t3a7vXGCtxlW+3DMxJ9uINIkzW2g98XypJZRLJ0mHDkzdqdpLjf4uOAHxEPV/P3Gs+6S/3aSy0B/E8vzRIBi6Zw9rHyzaUqRqy3uELz1uJqHyW9rd/a/VH/w72n9BZdzWE2xdPq4iuTTG7rYYGvB9f56VlOD9lX821Nuql5P8BP0e4qlUeMqoxckqz/yZpfgOGZV+dfxVT84+I1N6l/1JYKBplEsfepU9/HS8wfFLf5RdIHSY1VONFxW7WWBzRQDnRDME5lJsbT5oob1FStqqWyx6BXR6zXbVPXn31f/73uElH4e1hYt+pYAxdKldY3nOk5+sFj+p8DDor0qqeqemL/XOFMxtI789O024WcQv0mxdFkc7Z670fdJLgmTdqfwLTG7qvjz16Nd3/LUWslq9RK/Ffo7iqVJmsCz6ndv7SpznLxDeBirOlSeIvAogLatpA74WgjnWV5KsTR5UmgvThYLP3v+tfbivVpeeQJhqdhND6+Elop+L4ckFiRNCVAsPb4Wfs+7z04Q+dYZKfPAisrfhAnfiv7t/JEDRXYwSWrxmx8olh5LZGqQX5wU5eT0F/fILVf8YaWJhqkyf77ly/015yl7+zOpPEeDFEuLhfMdOflTb9tW3cYe+Mdkya1tqXQQ3kRyC86CwrXV/Wot++HJTyS3VuMycBRLWHaJo6B8/T/iGpwxmxQ8POLGh1vIb+maswPNUskTHjrmF8+cuRpSUdOnm1wq/1yDgjkUS4cZLp6XlXf0pY5ZxcXFz2bt6HNUcbn+3Wc/8aSRiwfxrjl4/10v/jPQ1Kx3t5QoPppiTIBiaVCm97n08kJnBWqY722ecAOKpcMuj3u1+6x51znNPQ50Z4BiaXCJx8NY6akUFR7nmV+LYunwV4/H8ZWzrgGe6XXRvw9QLB2OeDuMkZfPPsLyuFdPZFAsLYq9HcdKt32V9vM0TzjqfboUS8yczV6O4+bKnw/T8rwM9EKAYulqlodfhuEPqwjUar53gQ4mUCxtcl/ybByrfv7DM2O9ypM6KECx9Ol6lUfjuKiau0J3tvMo0M0BiqVT2jfeHGBVey1V9u2eBOoWoFiaxaTaH8bRe6vPM8GLadK5aRRLu+dO2h7G9Gdq/BB903qv9iwOUCz9Vj5l+QfhuiiB1lk+hH9D8A43iiUpvtBqrx6PGmjvdJuB5mUHKJYhifa+DtNFlvYo+sper9oLr2JDseQt22FpGHuMEAuUVG4p0OSZAYplUM6xHjaG8UBf0UD9s6z06kqJe3EplpLDn1v4Wd9fItC0m8zPt38tc0s1xVIUN8/sMEZig1J5ipLTzQba3UgqD8VStfijAoPDOPo56UBtjF6M2PL6AMWypFZx2NQwViitbNXI2MxDj1AwQLHs2bnIyDA2H6GYJ3jbUSOBOsqv+0Wx3Bmo/2xduLirep7S2T21B1o1WyEIxXJrYUetX4jhiQ3d5Sm7fIHeoz3ZBb8olra5h9hOukYxUtFUwzRbo4qIrkBjY2eohaBYWn4hXrxHy6fVlW00BZoyfLSOQJ2SZ6gmoFia7I91ez3nsNhsjXni47Lc3m7RJyZD/fWDYlddNHa9ozcIvU554NwVv3ak+ldi6upWQd2Bxp23SP3wb/cGl8d6QpfbFux1vZd9hfZxQ+CcVvbdqTcUBnH+365ZZibQ0ln7VK7XKv/q1ni3L51xKPrrLF+nYR+PRb+sN/zr+MA5b+XN66WObw48uSnBZJ60jd9/K/OlGD5+X9McLa/cpm4Um/preZ1JK6K8Tp1egZ+HnCn1Tx0ROHXX+/4XEvfaCBQ/8J0rRR7yXL46c0T/APz9tfjA298fOl71yn3hYS0Pnfj7/qDVQIsvvK1bxZ6qvxkLFty7KzNuGaN2Dh3SD6l96+X1msReXTxmzKnYV0PHYtYNyC7zMFBumy5vX/Nl7EfFxSOL34zNDI2fVWfnHMYJAAAAAAAAAAAAAAAAAAAAAAAAAAAAAAAAAAAAAAAAAAAAAAAAAFz4Xzq2BdHzCb0QAAAAJXRFWHRkYXRlOmNyZWF0ZQAyMDI0LTA2LTMwVDAyOjA0OjExKzAwOjAwnRG7fgAAACV0RVh0ZGF0ZTptb2RpZnkAMjAyNC0wNi0zMFQwMjowNDoxMSswMDowMOxMA8IAAAAASUVORK5CYII=;" vertex="1" parent="1">
          <mxGeometry x="317" y="477" width="25" height="25" as="geometry" />
        </mxCell>
        <mxCell id="48x9F1mXmifq3sj9QLIl-10" value="" style="endArrow=none;dashed=1;html=1;rounded=0;entryX=0.5;entryY=1;entryDx=0;entryDy=0;" edge="1" parent="1">
          <mxGeometry width="50" height="50" relative="1" as="geometry">
            <mxPoint x="330" y="550" as="sourcePoint" />
            <mxPoint x="330" y="521" as="targetPoint" />
          </mxGeometry>
        </mxCell>
        <mxCell id="ZmxOSKaFQAJhcJr6SPo7-5" value="&lt;b&gt;SSH&lt;/b&gt;" style="text;html=1;align=center;verticalAlign=middle;whiteSpace=wrap;rounded=0;labelBackgroundColor=#1E2129;" parent="1" vertex="1">
          <mxGeometry x="300" y="503" width="60" height="20" as="geometry" />
        </mxCell>
        <mxCell id="48x9F1mXmifq3sj9QLIl-12" value="" style="endArrow=none;dashed=1;html=1;rounded=0;" edge="1" parent="1" source="48x9F1mXmifq3sj9QLIl-15">
          <mxGeometry width="50" height="50" relative="1" as="geometry">
            <mxPoint x="330" y="588" as="sourcePoint" />
            <mxPoint x="590" y="590" as="targetPoint" />
          </mxGeometry>
        </mxCell>
        <mxCell id="48x9F1mXmifq3sj9QLIl-14" value="" style="shape=image;verticalLabelPosition=bottom;labelBackgroundColor=default;verticalAlign=top;aspect=fixed;imageAspect=0;image=data:image/svg+xml,PHN2ZyB4bWxucz0iaHR0cDovL3d3dy53My5vcmcvMjAwMC9zdmciIGhlaWdodD0iOTYiIHdpZHRoPSI5OCIgdmlld0JveD0iMCAwIDk4IDk2Ij48cGF0aCBmaWxsPSIjZmZmIiBkPSJNNDguODU0IDBDMjEuODM5IDAgMCAyMiAwIDQ5LjIxN2MwIDIxLjc1NiAxMy45OTMgNDAuMTcyIDMzLjQwNSA0Ni42OSAyLjQyNy40OSAzLjMxNi0xLjA1OSAzLjMxNi0yLjM2MiAwLTEuMTQxLS4wOC01LjA1Mi0uMDgtOS4xMjctMTMuNTkgMi45MzQtMTYuNDItNS44NjctMTYuNDItNS44NjctMi4xODQtNS43MDQtNS40Mi03LjE3LTUuNDItNy4xNy00LjQ0OC0zLjAxNS4zMjQtMy4wMTUuMzI0LTMuMDE1IDQuOTM0LjMyNiA3LjUyMyA1LjA1MiA3LjUyMyA1LjA1MiA0LjM2NyA3LjQ5NiAxMS40MDQgNS4zNzggMTQuMjM1IDQuMDc0LjQwNC0zLjE3OCAxLjY5OS01LjM3OCAzLjA3NC02LjYtMTAuODM5LTEuMTQxLTIyLjI0My01LjM3OC0yMi4yNDMtMjQuMjgzIDAtNS4zNzggMS45NC05Ljc3OCA1LjAxNC0xMy4yLS40ODUtMS4yMjItMi4xODQtNi4yNzUuNDg2LTEzLjAzOCAwIDAgNC4xMjUtMS4zMDQgMTMuNDI2IDUuMDUyYTQ2Ljk3IDQ2Ljk3IDAgMCAxIDEyLjIxNC0xLjYzYzQuMTI1IDAgOC4zMy41NzEgMTIuMjEzIDEuNjMgOS4zMDItNi4zNTYgMTMuNDI3LTUuMDUyIDEzLjQyNy01LjA1MiAyLjY3IDYuNzYzLjk3IDExLjgxNi40ODUgMTMuMDM4IDMuMTU1IDMuNDIyIDUuMDE1IDcuODIyIDUuMDE1IDEzLjIgMCAxOC45MDUtMTEuNDA0IDIzLjA2LTIyLjMyNCAyNC4yODMgMS43OCAxLjU0OCAzLjMxNiA0LjQ4MSAzLjMxNiA5LjEyNiAwIDYuNi0uMDggMTEuODk3LS4wOCAxMy41MjYgMCAxLjMwNC44OSAyLjg1MyAzLjMxNiAyLjM2NCAxOS40MTItNi41MiAzMy40MDUtMjQuOTM1IDMzLjQwNS00Ni42OTFDOTcuNzA3IDIyIDc1Ljc4OCAwIDQ4Ljg1NCAweiIgY2xpcC1ydWxlPSJldmVub2RkIiBmaWxsLXJ1bGU9ImV2ZW5vZGQiLz48L3N2Zz4=;" vertex="1" parent="1">
          <mxGeometry x="474" y="623" width="38" height="37.22" as="geometry" />
        </mxCell>
        <mxCell id="48x9F1mXmifq3sj9QLIl-15" value="" style="shape=image;verticalLabelPosition=bottom;labelBackgroundColor=default;verticalAlign=top;aspect=fixed;imageAspect=0;image=data:image/png,iVBORw0KGgoAAAANSUhEUgAAAlgAAAJYCAMAAACJuGjuAAAABGdBTUEAALGPC/xhBQAAACBjSFJNAAB6JgAAgIQAAPoAAACA6AAAdTAAAOpgAAA6mAAAF3CculE8AAAC8VBMVEUyMzA0NTJJSkhiY2Fyc3F2d3WEhYOIiYeSkpGampmfoJ6YmZePkI5/gH5wcW9gYV5QUU44OTY5OjdTVFFpaWd7fHqNjYyfn56TlJKKi4l6e3lrbGpZWlhISUaZmZi0tbTNzc3l5eX8/Pz////r6+vQ0dC3t7Zub21KS0g1NjNXWFWBgYCkpaO9vbzV1dXu7u76+vrh4eHIyMerrKuGh4U+Pzw7PDlsbWqWl5XBwcDx8fHExcRnaGY8PTqmpqXQ0M/39/fi4uKGhoRWV1VLTEm7u7r19fX9/f3W1tZbXFn+/v7w8PBJSUdBQj9kZWJhYmBfYF1DREFRUlCdnZzb29rq6uqoqadtbWuztLPU1dSQkY9NTUvx8fAzNDF9fXvo6OdAQT+wsa/19fRFRkP7+/uHiIby8vLU1NOFhYQ8PTtycnD5+fm4ubiDhIKgoZ/d3d2np6ZMTUrX19aLjIo6OzitraxSU1C6urlzdHLa2to/QD1ERUKysrG8vbzY2diCgoCvr67Jycnt7e1+fnyVlZRERUPGxsXOzs1UVVLMzcxdXlzn5+f4+Pjg4eBeX13Kysk9Pju+vr12dnRCQ0A3ODVGR0T09PR0dXM2NzS3uLdHSEVPUE2cnZvp6elZWVfs7Oy/wL/29vZxcW95eXe/v758fXvk5OPCwsGjpKJjZGKrq6ptbmzY2Nd4eXfj4+NlZmS1tbRvcG7c3dySk5FNTkxVVlTExMNdXVuvsK+zs7KxsbClpaTv7+/c3NtRUU+2trXAwcDT09JoaWZVVVOenp3m5ubg4N/f39+5ubibnJphYV9mZ2Xk5eROT0ynqKfZ2dnHx8bo6eh3eHaOj41AQT7MzMt6eniKiohYWVbS0tKhoaCOjo2AgX+MjYvz8/OXmJZlZWOjo6Kqqqmsravt7ezIycjPz87FxcVaW1lcXVqWlpXe3t6urq2RkZCpqaiioqHR0dGJiYjLy8pqa2l1dXO7vLvDw8Kbm5ppamh+f32UlZOeCzNXAAAAAWJLR0QjKmJsOgAAAAd0SU1FB+gGHgIEC/l/LqEAABQgSURBVHja7d15fBXVwcbxe1niNUIkgYAaSCQDQlAhqMSwQyVcuMgqqyE1QIxgsAZMWFU0CC6sQoC8YmTVgCgqa0VAlIK4IKK1CK244Far1tb3rbZ/vX2p7UfIcs85c86Zwff3/ZvMfeaeh3vnnpk5EwgAAAAAAAAAAAAAAAAAAAAAAAAAAAAAAAAAAAAAAAAAAAAAAAAAAAAAAAAAAAAAAAAAAAAAAAAAAAAAAAAAAAAAAAAAAAAAAAAAAAAAAAAAAAAAAAAAAAAAAAAAAAAAAAAAAAAAAAAAAAAAAAAAAAAAAAAAAAAAAAAAAAAAAAAAAAAAAAAAAAAAAAAAAAAAAAAAAAAAAAAAAAAAAAAAAAAAAAAAAAAAAAAAAAAAAAAAAAAAAAAAAAAAAAAAAAAAAAAAAAAAAAAAAAAAAAAAAAAAAAAAAAAAAAAAAAAAAAAAAAAAAAAAAAAAAAAAAAAAAAAAAAAAAAAAAAAAAAAAAAAAAAAAAAAAAAAAAAAAAAAAAAAAAAAAAAAAAAAAAAAAAAAAAAAAAAAAAAAAAAAAAAAAAAAAAAAAAAAAAAAAAAD4TbBW7Tp1Y84LnR8be0GoXv24CxvEexsooWGjuokxjUNNYmMvCl18SVLTZkFG6ZzSrE5yyqXNU51KWrS87KJWra3nSWtz+RVXtm1XOU96+6uuvqZ2B0bM/zKuzezYwqlZp86ZXbraCtQ6sVv3HlEC9Uz5xXV8ePlYr5is3o6YcJ/kvsbHMtg3uU9EMFC/rJjrdbxm/wGNajYwQ8//4EFRXmfA4J9Jq4bcMNSRM2z4AIPdCo4Y2U4uT2TUjdluD+OuTo36MqOTNOzdJZ2ivk5qZs6536qEX14acRS06HadoW/A5JtU8jhtL85187JjRF5j7DjXu9c3T+SFbj7Xa9VweL6j7JbxE7R/WN3aOaycp2BiI+X/6cECoZe4zfUe/krodW4/x2uVoj6K//ofXDhJZ56cuMnu8jjt7yhSe+kOYtu/wPU+Fgu9Tu9zuVZTLnNZq9OHA1PbaKvVtOnu8zjtLphBsbw0804NtTp94HyXnmrVvltPHic/eQbF8krOrNGONpGJ7r8Qc++J6AuUf2M8xfJEg3sdrdILXc6B1y3RG+im2TkUy7rgfemObiWJLgLNmas9j3P/AxTLsv6dHRMenKJ8dDXMRJ68wgyKZdND8xwz5jdWmkXKqZdqKNCChRTLnpvTHWMW1ZLPs/hhc3lSk9MolqVfg00ck/KXyAZa2sdooFuyKZaVXnVzDCsulQq0bKjhPMtXUCzzyv7LMa77IxKBVjY3nifyaJBime5VR8eC8seEAzVcZSPQ6gyKZdbVjhVr1grmGdzTTqDptSiWSZmOJeHxQnky2toKdNMUimXOuoitcXQi9UTm/9dby+OUPEaxTBmQ7liUHD1Qoc08nQZRLDNmzHOsejxaoLV28/QbR7GMmGh3HJ0nop13LrEc6AaKZUKiY1vNlwjnVNjOs5piGdA63/Y4Dqs50HjrRd9AsQxYbX0c69f8RTjWdp5OyyiWfhut9yql5kBP2s4T3sSvQgOnnlvaHsenEmoMNCTPdqCLmMcy4Gnbw9gvys0V620HWp1DsQyce95seRhTn6k50EDbvbo9+h3bFEvebNvjeEeUQJ0t5xnbkJPQJqjfCBrupPJXz0bJ84D6ScuCNSp78VyAYpk4SSg/Elvu3LpiYevTB+AJudu2J53XbccC4fumoxy4q1y90+PBwpuTrht3+oq9DuO27Vyy9deXis/cC5WBYkl7XvLAe9eKKu9Qz137wmSRcu2Odld0guRk7Z5HB1V5S8Te214sF/n7fVxBasQEqW+Ply6p6eb03Jj7o32NhV+OFugSmTx5zz9U07b2/+ZAtC0cXBygWF7PNbwSF3VzvS6q+Tdm9CuxZM4CHFoZdY5uY/EatwfuFEvFIeFRjPxKaCmN4NNPVb+NiVEnjDLmCwcqiRPaw6XnV7/ASaROgGKZmcRaLjqMa1YIbzTp/mq2MT36fQu3CvfqbuHVv7s2rm6551cDFMuM10SHcf7rMpuNe6PKM72Ho//lm6KBjuRK5ClKrnKpx7eCFMuQ+0S/B1fIbTchs/IS7GGRRYX3CAY6Krkm9eF9lbfRU3wFNoolaYfgOA6X3nKtudJnev9phuDsaLi2dKBNZ88+9N4eoFimCN4SWqKwcFpOzJnPHFgvsthMF8Gi71LY1w5nDlrk7QDFMqWZ4Di+o7T1lT+9HmeL0LNQ6gmex1Z7bM/b/X6yjdgAxTJG8AOix2/VNh989D/fbPkNhP7iHrFADyvu7yPdFQ7cKZY8wWvL9ym/QKsfT9CEW4n9+3fFAv1ONU9a7I9bOLA0QLHMEVwO65j6K+z918+8TMF/fkAskIvHFD1++ufqmvcCFMugXWLv1wAXL9H1zrCzJiT6r8Xm3cvd7PN7Qx1n88IAxTJJ8Pa9Za5eZGZT4WVkJ4jleddVnpwG+6VXQ6VYcrqLvV8JtvK0Fsuz3vobRbHkiK0UFLH2eLwGYuM3kWL5nOAJlAm28mwXy1NBsXxOcO3YbFt59ovlOU6xfO4lsffrVlt5ssXy9A5SLH8TfBjTCVt5BgueYmpKsfxtn9j7Nc/W0XuRYLGaUCx/E13YvZWlPDmCd5GtKqJYvjZc9GZAWwc1/QQDbaVYvvZ70QuBQ5YCjRLMU7CdYvmZ8BKy6QPsBBJeC3X6YorlY/tFx9HJf89KoEeFA92bQLH8K0F8AY78jTYC/UH8btXj/SmWfy0QH8iC8Rby9JW4D/rgdRTLt8ZIDKSTtcx4njSZZW17vJ9GsXzqcpliOSfvMD7tcJVUoCMXUix/auDIafua4UAfyOUJXz2HYvnSMMlmOXPNfkh8KJunx0dzKJYPDXccX1UrKP8QHRvVoliyajsK+sw2d9T8sUKe9JQ2FMtnctSeJ9ciOddQoAFKeZzudYMUy1euUBtIp/cpM58SwXLFQD3fyaVYPrI37KjqE2PitMoHynkKsgZSLP/o6Kj75IbW2vMMnu8i0Kj68RTLJ55x3Ah/Gqf78tJTrgKdLG7oXbE+i3XryM+nWIE+jjsL3p+hNc+UsLs84c6tgh4Vy5Zzo1hdXO9nQZbWqa1drgOVJw+mWN7boWFXdR7I63jAakFWI4rltSlaHjyZX6jtvtZMLe/+5JgMiuWtbnp2N7wvSc/BTVFzPYFGf7SSYnmp6KCuPd4c0nJd58CwpjzhT+umUSzv9NX3FOaCLB1X1nykbxCG6TiQp1iKXtW528d/6XqWMn6LxjwFKYMolkfS7tW64+2aNHMZqOFyrYEm1y+lWJ7I7al31/OydroLlBTWG+gTV9djUCxl28dq3vnI5+5mTbdqH40NMymWB5IKtO9/54dc5Mkp1p5nzYnBFMu+Oqn634GOQ9TzBJ81MCLnZ1As65aE9b8FecXqP/aDhwyMybCYIMWybV26gTdh9Hjl62pKLzMxKm2/oFjWL3RYbuJt6P6A8nHWCRN5Ugu7UizL/viJifeh4Evl8yqhiIlAT3ShWJY1O27knbhlm2qgfz8/TPNcSGEpxbIr/h4jb8Vy5SfBNdhiJFDblRTLslm9jbwZV6heUjPhWSN5Tl5LsSyb9JmRd+Mt5Uvjl/QzkSccoli2T0lnFph4O/6kfKDV7HMj43NPGsWybOVbJt6PVeprHcfdZCJQRTzFsixn9ioDb0iJ+hK5HYYbOOPkdE6gWLZ1PX+NgWn4x9QDNawwMESL4imWdY98laf9LWnh5lae1w1Mst0VpFj29SrUfhS/eaabQLXf1T5IpyiWJ1MP3XRfAHjc3QXxjebqPslzI8XyxIyvj+p9V75xGWj7GL0fo6kfUixvBOM+1fq2JLoNNDikdfLhk2UUyys7X9R4qdZY9/cnlyaO0jhO9wYplmfmhMq1vS8P6lhSq2+Kvt+s4ymWh0rravu1/wctgcYl79aUZ3kziuWpvil6pr9Hz9STJ372dD0jNVVPseZ3cqvg/2exAoFJf9Zy4d1X2gK9vE/LLSCvaykWa5C6+pTQcOVd3mF9gbbFdnIfqCXF8oHaWa4/JZ7XmWdCzJ9cNyuJYvnBkI9dXmYaHqI1T/C5T11OyI+iWP6wOMbdam3f6A60t9Dd1Ri1KZZfJuSnuTkjvDxDe6Dc0DwXgZ6lWD76RizsoTyQs8ycfFL+RiwYTLF8pL/yp8QoM4EeUz5F3Zhi+esbMe4WtYHMNhRocLLaTT3fUizfTT9UqHwB/cVYnoyYBSo/VOdQLN9puk9+IN8ymCctUWHpy/oUy4cWLpIdx/QJJvOUxUg/R/1KiuVL1+7ROtntWlFIchK3Xw7F8qWykNwVUl+aDjRJ8lP0MMXyqffulhnHfcbz5MRIfWito1h+FS+zMswwC4GmbJYItIFi+VbObyQGcpyFQEslHiD7V4rlYxvEB/JCG3n6i/+maE6xfCzYWXggn7YSqJfwRHxekGL52FLhgfzaTqDfCTe9FsXys2s8uyarmuO+S0UDDaRYflbaQnAc77IU6DvRYv03xfI10cdqdrb1U1X0xOFsiuVrDwmO47u2Al0hGGg8xfL3D0PBew9H2QrUyu21fhTLHwTvxd9jK0+2YLHuo1j+liI2DgusfYQKrpWTTLH8bbjYOAy1Fkhwau0iimVg9qnP7Sm9NG2ridg4tK1pGzNOte+ztUxToANigX5Pscz8cOo3QM/GNrj/VZh7+//9iwdz9QQSnFmLoVi6Hfvx5rpELVv7Smwc/qeGSdYfb4Y9qGf1EMHLslZQLM1G/Hvdq0iyjtX25oqNw8fVT2mO/M/1whs15Pmt4K/CjRRLr6Y/+R/9fKn77b3h9trkD35yh3Jd93kGub02mWIpuf6M5UW7t3a7vXGCtxlW+3DMxJ9uINIkzW2g98XypJZRLJ0mHDkzdqdpLjf4uOAHxEPV/P3Gs+6S/3aSy0B/E8vzRIBi6Zw9rHyzaUqRqy3uELz1uJqHyW9rd/a/VH/w72n9BZdzWE2xdPq4iuTTG7rYYGvB9f56VlOD9lX821Nuql5P8BP0e4qlUeMqoxckqz/yZpfgOGZV+dfxVT84+I1N6l/1JYKBplEsfepU9/HS8wfFLf5RdIHSY1VONFxW7WWBzRQDnRDME5lJsbT5oob1FStqqWyx6BXR6zXbVPXn31f/73uElH4e1hYt+pYAxdKldY3nOk5+sFj+p8DDor0qqeqemL/XOFMxtI789O024WcQv0mxdFkc7Z670fdJLgmTdqfwLTG7qvjz16Nd3/LUWslq9RK/Ffo7iqVJmsCz6ndv7SpznLxDeBirOlSeIvAogLatpA74WgjnWV5KsTR5UmgvThYLP3v+tfbivVpeeQJhqdhND6+Elop+L4ckFiRNCVAsPb4Wfs+7z04Q+dYZKfPAisrfhAnfiv7t/JEDRXYwSWrxmx8olh5LZGqQX5wU5eT0F/fILVf8YaWJhqkyf77ly/015yl7+zOpPEeDFEuLhfMdOflTb9tW3cYe+Mdkya1tqXQQ3kRyC86CwrXV/Wot++HJTyS3VuMycBRLWHaJo6B8/T/iGpwxmxQ8POLGh1vIb+maswPNUskTHjrmF8+cuRpSUdOnm1wq/1yDgjkUS4cZLp6XlXf0pY5ZxcXFz2bt6HNUcbn+3Wc/8aSRiwfxrjl4/10v/jPQ1Kx3t5QoPppiTIBiaVCm97n08kJnBWqY722ecAOKpcMuj3u1+6x51znNPQ50Z4BiaXCJx8NY6akUFR7nmV+LYunwV4/H8ZWzrgGe6XXRvw9QLB2OeDuMkZfPPsLyuFdPZFAsLYq9HcdKt32V9vM0TzjqfboUS8yczV6O4+bKnw/T8rwM9EKAYulqlodfhuEPqwjUar53gQ4mUCxtcl/ybByrfv7DM2O9ypM6KECx9Ol6lUfjuKiau0J3tvMo0M0BiqVT2jfeHGBVey1V9u2eBOoWoFiaxaTaH8bRe6vPM8GLadK5aRRLu+dO2h7G9Gdq/BB903qv9iwOUCz9Vj5l+QfhuiiB1lk+hH9D8A43iiUpvtBqrx6PGmjvdJuB5mUHKJYhifa+DtNFlvYo+sper9oLr2JDseQt22FpGHuMEAuUVG4p0OSZAYplUM6xHjaG8UBf0UD9s6z06kqJe3EplpLDn1v4Wd9fItC0m8zPt38tc0s1xVIUN8/sMEZig1J5ipLTzQba3UgqD8VStfijAoPDOPo56UBtjF6M2PL6AMWypFZx2NQwViitbNXI2MxDj1AwQLHs2bnIyDA2H6GYJ3jbUSOBOsqv+0Wx3Bmo/2xduLirep7S2T21B1o1WyEIxXJrYUetX4jhiQ3d5Sm7fIHeoz3ZBb8olra5h9hOukYxUtFUwzRbo4qIrkBjY2eohaBYWn4hXrxHy6fVlW00BZoyfLSOQJ2SZ6gmoFia7I91ez3nsNhsjXni47Lc3m7RJyZD/fWDYlddNHa9ozcIvU554NwVv3ak+ldi6upWQd2Bxp23SP3wb/cGl8d6QpfbFux1vZd9hfZxQ+CcVvbdqTcUBnH+365ZZibQ0ln7VK7XKv/q1ni3L51xKPrrLF+nYR+PRb+sN/zr+MA5b+XN66WObw48uSnBZJ60jd9/K/OlGD5+X9McLa/cpm4Um/preZ1JK6K8Tp1egZ+HnCn1Tx0ROHXX+/4XEvfaCBQ/8J0rRR7yXL46c0T/APz9tfjA298fOl71yn3hYS0Pnfj7/qDVQIsvvK1bxZ6qvxkLFty7KzNuGaN2Dh3SD6l96+X1msReXTxmzKnYV0PHYtYNyC7zMFBumy5vX/Nl7EfFxSOL34zNDI2fVWfnHMYJAAAAAAAAAAAAAAAAAAAAAAAAAAAAAAAAAAAAAAAAAAAAAAAAAFz4Xzq2BdHzCb0QAAAAJXRFWHRkYXRlOmNyZWF0ZQAyMDI0LTA2LTMwVDAyOjA0OjExKzAwOjAwnRG7fgAAACV0RVh0ZGF0ZTptb2RpZnkAMjAyNC0wNi0zMFQwMjowNDoxMSswMDowMOxMA8IAAAAASUVORK5CYII=;" vertex="1" parent="1">
          <mxGeometry x="481.5" y="576" width="25" height="25" as="geometry" />
        </mxCell>
        <mxCell id="48x9F1mXmifq3sj9QLIl-18" value="&lt;b&gt;SSH&lt;/b&gt;" style="text;html=1;align=center;verticalAlign=middle;whiteSpace=wrap;rounded=0;labelBackgroundColor=#1E2129;" vertex="1" parent="1">
          <mxGeometry x="494" y="578.5" width="60" height="20" as="geometry" />
        </mxCell>
        <mxCell id="48x9F1mXmifq3sj9QLIl-19" value="&lt;font style=&quot;font-size: 10px;&quot; face=&quot;Courier New&quot;&gt;arthurgassner/swissenergy-backend&lt;/font&gt;" style="text;html=1;align=center;verticalAlign=middle;whiteSpace=wrap;rounded=0;labelBackgroundColor=#1E2129;fontSize=10;" vertex="1" parent="1">
          <mxGeometry x="486" y="631.61" width="262.5" height="20" as="geometry" />
        </mxCell>
        <mxCell id="48x9F1mXmifq3sj9QLIl-23" value="" style="rounded=0;whiteSpace=wrap;html=1;fillColor=#a0522d;fontColor=#ffffff;strokeColor=#6D1F00;" vertex="1" parent="1">
          <mxGeometry x="397" y="459" width="150" height="60" as="geometry" />
        </mxCell>
        <mxCell id="48x9F1mXmifq3sj9QLIl-25" value="&lt;font style=&quot;font-size: 10px;&quot; face=&quot;Courier New&quot;&gt;swissenergy-backend&lt;/font&gt;" style="text;html=1;align=center;verticalAlign=middle;whiteSpace=wrap;rounded=0;" vertex="1" parent="1">
          <mxGeometry x="419.5" y="453.5" width="130" height="30" as="geometry" />
        </mxCell>
        <mxCell id="48x9F1mXmifq3sj9QLIl-26" value="" style="shape=image;verticalLabelPosition=bottom;labelBackgroundColor=default;verticalAlign=top;aspect=fixed;imageAspect=0;image=data:image/png,iVBORw0KGgoAAAANSUhEUgAAAHMAAAB/CAYAAADcgf2dAAAABGdBTUEAALGPC/xhBQAAACBjSFJNAAB6JgAAgIQAAPoAAACA6AAAdTAAAOpgAAA6mAAAF3CculE8AAAABmJLR0QA/wD/AP+gvaeTAAAAB3RJTUUH6AcSBBgdmOcsFwAAE5ZJREFUeNrtXW10HOV1fu47s19aSf5CxnIwid2TJlgGH2K3xQESQzDQgBODkSmBcwptg4GEphgCbWnJuibGYBKSkKTQ5IQf5QBHTkzAEHLAIGNjG04xp4BlSkgAGzuSLWNHsrWr2Z25tz+0s5qV9mt2Z1cra+7B7Gi0o515n/e597n3vjNLqGOLxWLqtcgXZzJZs0msOWDMFtAcCLcK0AyRsACNEGmGcFhAjRAZAJAUkWOAmCLoI4glgh4h2cvMewlqHyxrryXYu23t5T0ACU4Ao3o6mcvWbp6WCtAXLMHnQXIWGAtEJAJI+j/n69D4i/NVBDL0g+N3kv5x+NX5PhHEAX4Vgq3QZOPWNSve9sEs09pjHcGBxunLIXIVwBdBELRBGwKgRCBtsPIA6Tw2A6QNfDa4Owjy/W3rrvyVD2apJkKXfP/lKyBYB+E5wwPsBDI3oJl9DkCdx44EOddkGMXgUfvwEivrGzvv+dr/+WAWZGNXMN7Y+9+ArMhmSh4gh1lTHMgsQCtm9XEQX7Pj3qufGg9gqpoD2dGhJZp6N40EEsWAROlADv2vdCCHjxnlnhvBtHHRbY+t9MHMYYn901eJyIXp4XW6tRxiBaNjnOOY4d8hB6tHgJs5ZORkGAG441zS+xQgP1n07Ucv9d2sw5Y90Dk5xXQAwg25XGJ6EA8B1AXhoIgsECA8ksG2Sxy1zwP3XEB09VnK/Oz/rL+ux2cmgJSJ5RBpyMOGYyC+tmnOn2b+9p+XnP/bf7noHEtpMwD8wEm3DDBuWD1iX5msnqQs7bs+M9P25fs7nySRZTnYkIIl5z33rxduz3Xckrt/cxeA1TnTjXJTkPJYzabGf75r/bV/mPDMJOG2nGwAHskH5BCjI2sF8j4yOqVgjHNoGsli42ggXbNaaRZdMeHdbHtHhyag2blSEGIpmKBviZ1nEuPXXijXQhUi5KoQYcQ+lq9OeDCP9zRGIaI72WUPIhF1FzuewQdKiXFSRLnmSUEKu2dk7fv0hAczcCwYyTeIDMws4VQ/UbSwUGqFyK17zhZd0xZf+0h4QoM5GLaC+djAzO2Fjl3w8OsBCF9WJ4UFSkwyJ/lFgzxsAORvl6z9zRfzHTOpu/suALPrqbBQj6bXGMp8bNAJ9OySNc/demR6yy92rVyYAoAvrd04TVKBNQTcWLJYGR3jipcL4bKwQD6YxdgQBeGhKYcOrrtgzTO7wQiLKfMJCFQY4zwvLPjMTADQS2LDZAjOEaowBSmiXIumIIVYXafMVGPBTC/KbCWlIFUqLPi1Wbhjg2cpSFUKCz6YWWyQgmxwl4KglC4IKu5t1r2ara2bdQwiCrIBudmQJwWRUtzzKFaX1dsEBBiY6ALIUlpcR2oDCGAeMVAAKC142KlEaag8NLQp6U2BENL708dCwMP72qteWKhTBUQ4wezsO55gQKjg8kp7JrmJ1Y59qQDN2P3Drx+c8BWgmjjzKhcW6tXPVuRm2zs6tL69k6YFTK3Rud8YXZkt9MscZuQ6csQPuT+DuUaFBftXvbfPBKeKF94t1U8zv3e4bsBcen/nSUzcLhadC5KzBz7EqZoIWGWzQRvFBm3YrWkoodOvMoOoORmiFYpxWu0KC1kgWb8E1KJSfKD03JoE8A4IG0HqcZq+/r2ag7n0/s7PMnAHA38DpjBozDr9dVFYqMCCAOZDZD7Y/Hfp+daDCHCMpj3YX3UwF8c69WiTupWFVwMI1UWnf4wLC14UTdKfpYNxCwy6WPbffCGd8uD+qgmgZQ90Tm5sok4SXjcMJKqfkHshVqpUWPAQyPQ2A+DTQLxVDt00oypgfuUHm082mbZA5JzibPA2IS9XrFS7sFAZiOyYgLlAldkw5XGRds1TMBfHOnW29F8CMr9SNtToFoLqs9oTNvIQqODRoIoALIuxf+o3PQUz2qTuAXBOWdJ97G4h8DYFES8qsDkZOMxUpP8590P+Td67udkTMJc+sPVzBLm1Iulei05/LVKQsllpu1UHWLlcrDjiZub9chJCg//oDTNF/kNEqFLpXutbCOonBckrcmywSmCstbLc2KmGc8ktf8HMl4wpG8ZtClKSyMkdN0eDego+arygIjCFcE09sCGnq6sxq91jWaLIydp2MHbke4SvKB9MERJg2fjp9FeP1aVYSPGxYSA57ErklMbYS0Tcd7QUACxd/9KZYD513HT6xzYF+dOu/1oZH/6RJ7sUOaUo3VZ8cM0ZZYEpSp07njr9VSkslG57M5feFQtCZJZrkVOK0lVyTnlginx+rNhQH4UFV/Z8ZmvK4TMA0csQOcWVLvMityemp4f2rDFJyOuksODGGLzJwYUlpbFRcqcueY8BAHENplp6f+dJEJxa+4S8PgoLLu3Nt04+5Lgp2LqqApFTTOnOkXevOskVmGxZp49JClIHhQXXGQjR7YjFhtYy7P/GlyByegUip/gkUKl57mImybwxS0HGsLBQhj365k9XPj/0cTEFknsrFjnFJoEmrsDULdBnaJyV2SouLLg22hUJD1yf+bG752oIFjgurvy4mXcbgKDNFZgEnDqeymwVFxbcO9cdLHLZzgdWJQBADtz4GTD/KDeILkVO8Tj7KVdgCssnxkunv8YpiAXgodThaau6NqxIAoB8fHMz4qmNIEwuDkSFjB26kFNcpiZy8njo9NcwBUkB9BwL3/nWQzfuzlxC980tSCSfBGRuWS6zJFBHTYJZ7pgJRFF/ZbYeiPxRgOMgJMHpQqV9iwIT7JsV0k9FGJ5MbH+ifa5cPCKCPhagm0TeMEmeefs/bzqa5Wj33TAPZvJpQGZ7Albpk2CSdC7W6bwtZmnMTD/+bIw7/cdA6BCTn9aDatsr664+ijow+eDaMPTQt0ByJ0SaqiJyir3nVD0KoK/UCpA+hp3+BAl+aA3yPa89eE0/6sTkg2vDCESuBKzVEPlkVjrhucgpMglS5AJMkUEBGsYgBXlWkX7TK/et2Jd3UI/+02T0hz2+uSnHuIQxBabWCjHnAbQY4IuHuiGogcgp8nd10tzEzEGINNQ2BeEf7Wh47xa7mgIA0nt7EyzrUhAuh2AhgFYYCCGU8nhhVXD04JkCiOUIumXFt3JFTuFtK5QoXc2K9AGYWqtOP0Nu2Hnf1Q8PC93rAzjUdB0svhtAi7c3Jtc4vlVjEhxD3E3R4ACLzK5Fpx8s63au/9owkAdvmYOD6mkAbd4+LGCM4pv3kyCJBZtKZ6YlcoBqkIIw06ad0XfvzAx3z6qzIOppQFo8li9jF9+8nwT7iUqf5ToJPsyk99VLQeIw1Y2ZjsMfb/0kQDUEskbxrdg5uP+7e90VDQR7QNXt9BPwvR0PrDiQWWqhjj3lLZB1Et+8nwS/dwUma9ZuZVE1O/19QGJ95hOnHbsRwHxf5JQwCQivu+pnJiKJdwQwq9XpJ8ET2+/7+2MAIIduagToTu9A9GzhcXmrz73oWRZsXJvuwNy5akUCIm9Xq9MPyNPDC2gaLvXGvVa0HCP/JJC6mgT9iMddfcmcSg/Nq1Xq9AtocJsDhGXVdasVLTzOfs/YT4LnaeGulGswAdlZTLlKGZ1+AvbbLjbdnji7crdabddWJ5OA5TnXq/MAQAm9XEy5ooxOvwgODld6YgqCGd6xsd7im6eTwATzM2WBuTm2dB+Qjpse9jYZMlyKOnS0Ba6fOyTjJb55PAnwAs3fcagsMAGABc963eknZ4vf1IKeihycECInxyQAIPJYOf5rGEzL/IVNMS9vIfBFTqmTIGNHYRgbKwJz691XvAfBi17eQmA/vdIXOcX+btYilp/Rwl3xisAcGku+1+tbCHyRU2gSjBojA4p/Wq4/ywJzy93LN4PwpOe3EPgip5BbdZBSHqK5O/Z6AiYAUEqtAnCk1G9YL1RY8EVOAZEz2j6GUdn3c44Cc8u6yz5koisBmKNTELeFBfZFTjE2Dg/HTfS5bb2eggkAr9y9fDPA1wnEyE5Byigs+CKnOJCEtXT69o5KC515H4S4be2Vjwp4iUB6yu9t+iKnCJAC4C5q2+5JJ6ngY72333PVtkBYfRoka0TkmOve5qhT90WOYyzeAMvZNG/7Gq86u0XLa1tiK44DuGtx7JG1qYHg+QJcSCSzmTGdINM5K5YSIOxgLo/4klOuxXKM90c1kMl+TsBIIFDkPOCYWA7vxI7JB5QCogngEEA9IN4N4Cmat+N/4bHV7NsT5MCqWSBzX9WXY8x+QrlZBHUiWe2/crHqyzEmrtUQzEFAqPprcnwwa8jMaq85fX85D61pq+LCLA7MoNNfPDixwaztmtMqrs477jNznCw8LuHv+m52RBI9Xlef+zGzADOrHN88mwS+AHJYArC/RmosVp+XdBPQ+E53xkYA1Y/IEUBegOBlQAYBWQDI5RAJj8c0p8ZulutJ5BwG4Qo6rfPlrPn25hdmQ+Mn4en9MLUxNSbMHPt2leQCEgBo/tYPoNRfAzjig5mXlBaX3KmQarSrnO/nF3IBmQF07rZuAD/Oey2pIE9sMPsTvRBm122lkttVXGQSONtm0ll88qmX8kGJM7d9PKHBpLYNSUB6y+9Zunx/oUlAKP6cAGXlW+7YTYQJzsyhmLkjf3wrckuel3GWufijPwnz8lzDG37MHBqIx8vu3LuJs8UnQbu885fTCug0gtDK3COmHvPBBAAKboLw++7iW4XLN3ICjMmwAo/KjkWRnOe5++zvAvirHGw9gD7rmXoFk2r9gfJB+8VgPOdJ0u86Px159fQ2gDXQ9U5IyoCJhRDcBsKX87DyMpq77dc+mE5A319+HwTfrt1zdTyxn9O87V/388yRNvtXd0Dws6qKHC+BJHRgz8wb6r1oQGP54fL7ZddD5MeABCrqbOR1xZWfIogeRCJxm9vnC0w4MAFA3rt0EQQ/AXCmdx0TT0bmXRB9k+a+snm8lPOoHk5CpF3D747/HYA7APkzT0WOe9sHwnokBh8eD2ysOzCHQY0p/O7Vr0L4HwBZApFAjUROCsBmCH6Od2Y+RSs2WBiHRvV6YtJ10VSo1FcALIHI+YDMyB83y7KPAHQC9CIYm+iMV45inBuNh5MUAWHPuaeBaOHQN/3wfAjmgGQmBMUee50E0A3gHUDeBKm3wPwanb7jDzjBjMbzycvrCwKIRFrBNBkwG6FpDQAAE0ehYIL0g5i75eBEvV3BN998880333zzzTfffPPNzzNLO2cRwerVqwkAurq6Cl5DW1tbJseMxWIn9O3V9QYmxWIxQrrP2traSlOmTKGenh46cuQINTc3EwD09/dTNBolABgYGCAAaGkZ/ej33t5eRKNRAYDm5mbp7u5Gc3Oz9Pf3CwBMnTpVjhw5Iq2trdLd3S1dXV3S1tYmMcd3lPlglmixWEwBUK2trWQYhrIBi0aj1N3drSKRCEUiEYrH4xQKhWhwcJBCoRA1NzdjcHCQACAQCGSuwTAMAoBQKJTFvlQqJQCQTCYlHA6LYRjS19eHcDgsLS0tPDg4KPF4XAYGBgQA2yAD4K6uLuno6GAiEh/M/MxTAFRzczNZlqUaGhrIsiwVj8dJRFQoFKJgMEjMrAKBAOm6TrquUzKZzHoFAE3Tcl6HZVkCAMFgUOLxOILBoJimKaZpSiqVEqUUh0KhzLZhGGIYhhARJxKJzKqyqVOnSigU4u7ubgHA9crcmoHZ3t6utbW1ZQEJQM2aNYt6e3uViKimpiYVCASImZWu68TMyrmtaRppmkYiopRSFA6HkUqlSClFpmnarIRhGNB1fegpPswSCATEsqysf0op1jSNTdMUpRT39fWJUoqVUpxMJoWIWNM01jSN4/G4aJrGuq5zPYNaCzCpvb1dXXDBBcp2pdFoVLOZaFmWEhEVjUaVDV44HFa6rpNlWYqZVTAYVDaYgUBAMbNSSlH6vRkwlVJkA2i/KqWYmcXeTiQSTtDYsiwxDIPtfen3ZLYNwxBN0/jIkSOOxUnD/+oJ0Krf0pd2q9Td3U3pyaMGBgYoFAopy7JUKBQiZibDMCgSiRAzUzKZJCLKAtIGEUBmXzAYVJqmZW3bIPIQ4myaJgNgXdfZNE2KRqNsmiZSqRSCwSCSySQ3NTWRYRhkmqYKBoPCzCrtfhUAKx6PUyQSIaUUaZpGuq5TKBSizZs329ckE4aZHR0d6ujRo8owDGWaprIZJyJZ7jWRSGiTJk3KuFcbcBFRDQ0NZBiGlgbcZjDZLCWiLGbqui6pVAo2oE5mmqbJRJRhp+1y+/v7JRwOW7brHRgYYKe77e3trWtm1ipm5gR0pKu1BU8kElG54qUNqqZplEqlMkCGQiHYMTPNNui6LoZhwI6XzJx5JSIeGTcHBwdZKcW2GFJKcX9/P7e0tPBHH30k9e5ia65mc6UiAFRLS4sKh8MZIeRUssysotEobGBtFWsDmk/J2hYMBiWRSGRANU1TgsGgpBkrNgtzKdo0O7OA7Orqkg0bNjDqsPgwZnlmvhzTZqwNrjO/DAaDmdzSMAwyDIMaGxsz+eVIs/NNO8+005BwOCzJZFJs4BoaGiSRSIidjjgKCzyecs26qQDFYjHV1dVFbW1t1Nraagsmla7ekF31GRgYoJaWFhw/fpwAIBKJFLyGaDQqhw8fRmNjowBAPB6XdOVIbNBGVoLSLnTclf7GyYIuIbsWC8ctFa2trVnnn54A9u/EsT+zPXfuXNmzZ4985zvfESIC4K8P8q0O7f8BKB+AqFkZPPYAAAAldEVYdGRhdGU6Y3JlYXRlADIwMjQtMDctMThUMDQ6MjQ6MjgrMDA6MDAOQhCCAAAAJXRFWHRkYXRlOm1vZGlmeQAyMDI0LTA3LTE4VDA0OjI0OjI4KzAwOjAwfx+oPgAAAABJRU5ErkJggg==;clipPath=inset(0% 6.52% 13.78% 0%);" vertex="1" parent="1">
          <mxGeometry x="517" y="489.43" width="24.68" height="25.14" as="geometry" />
        </mxCell>
        <mxCell id="48x9F1mXmifq3sj9QLIl-27" value="&lt;i style=&quot;font-size: 10px;&quot;&gt;outside&lt;/i&gt;" style="text;html=1;align=center;verticalAlign=middle;whiteSpace=wrap;rounded=0;fontSize=10;" vertex="1" parent="1">
          <mxGeometry x="279" y="417" width="60.5" height="30" as="geometry" />
        </mxCell>
        <mxCell id="48x9F1mXmifq3sj9QLIl-28" value="&lt;i style=&quot;font-size: 10px;&quot;&gt;inside&lt;/i&gt;" style="text;html=1;align=center;verticalAlign=middle;whiteSpace=wrap;rounded=0;fontSize=10;" vertex="1" parent="1">
          <mxGeometry x="318" y="417" width="60.5" height="30" as="geometry" />
        </mxCell>
        <mxCell id="48x9F1mXmifq3sj9QLIl-30" value="&lt;font style=&quot;font-size: 10px;&quot;&gt;docker volume&lt;/font&gt;" style="shape=cylinder3;whiteSpace=wrap;html=1;boundedLbl=1;backgroundOutline=1;size=15;" vertex="1" parent="1">
          <mxGeometry x="592.25" y="454" width="50" height="70" as="geometry" />
        </mxCell>
        <mxCell id="48x9F1mXmifq3sj9QLIl-31" value="" style="endArrow=classic;html=1;rounded=0;" edge="1" parent="1">
          <mxGeometry width="50" height="50" relative="1" as="geometry">
            <mxPoint x="590" y="484" as="sourcePoint" />
            <mxPoint x="548" y="484" as="targetPoint" />
          </mxGeometry>
        </mxCell>
        <mxCell id="48x9F1mXmifq3sj9QLIl-32" value="" style="endArrow=classic;html=1;rounded=0;" edge="1" parent="1">
          <mxGeometry width="50" height="50" relative="1" as="geometry">
            <mxPoint x="549.5" y="496" as="sourcePoint" />
            <mxPoint x="591.5" y="496" as="targetPoint" />
          </mxGeometry>
        </mxCell>
        <mxCell id="48x9F1mXmifq3sj9QLIl-33" value="" style="shape=image;verticalLabelPosition=bottom;labelBackgroundColor=default;verticalAlign=top;aspect=fixed;imageAspect=0;image=data:image/svg+xml,PHN2ZyB4bWxucz0iaHR0cDovL3d3dy53My5vcmcvMjAwMC9zdmciIHZpZXdCb3g9IjAgMCA3NTYuMjYgNTk2LjkiIGRhdGEtbmFtZT0iTGF5ZXIgMSIgaWQ9IkxheWVyXzEiPiYjeGE7ICA8ZGVmcz4mI3hhOyAgICA8c3R5bGU+JiN4YTsgICAgICAuY2xzLTEgeyYjeGE7ICAgICAgICBmaWxsOiAjZmZmOyYjeGE7ICAgICAgICBzdHJva2Utd2lkdGg6IDBweDsmI3hhOyAgICAgIH0mI3hhOyAgICA8L3N0eWxlPiYjeGE7ICA8L2RlZnM+JiN4YTsgIDxwYXRoIGQ9Ik03NDMuOTYsMjQ1LjI1Yy0xOC41NC0xMi40OC02Ny4yNi0xNy44MS0xMDIuNjgtOC4yNy0xLjkxLTM1LjI4LTIwLjEtNjUuMDEtNTMuMzgtOTAuOTVsLTEyLjMyLTguMjctOC4yMSwxMi40Yy0xNi4xNCwyNC41LTIyLjk0LDU3LjE0LTIwLjUzLDg2LjgxLDEuOSwxOC4yOCw4LjI2LDM4LjgzLDIwLjUzLDUzLjc0LTQ2LjEsMjYuNzQtODguNTksMjAuNjctMjc2Ljc3LDIwLjY3SC4wNmMtLjg1LDQyLjQ5LDUuOTgsMTI0LjIzLDU3Ljk2LDE5MC43Nyw1Ljc0LDcuMzUsMTIuMDQsMTQuNDYsMTguODcsMjEuMzEsNDIuMjYsNDIuMzIsMTA2LjExLDczLjM1LDIwMS41OSw3My40NCwxNDUuNjYuMTMsMjcwLjQ2LTc4LjYsMzQ2LjM3LTI2OC45NywyNC45OC40MSw5MC45Miw0LjQ4LDEyMy4xOS01Ny44OC43OS0xLjA1LDguMjEtMTYuNTQsOC4yMS0xNi41NGwtMTIuMy04LjI3Wk0xODkuNjcsMjA2LjM5aC04MS43djgxLjdoODEuN3YtODEuN1pNMjk1LjIyLDIwNi4zOWgtODEuN3Y4MS43aDgxLjd2LTgxLjdaTTQwMC43NywyMDYuMzloLTgxLjd2ODEuN2g4MS43di04MS43Wk01MDYuMzIsMjA2LjM5aC04MS43djgxLjdoODEuN3YtODEuN1pNODQuMTIsMjA2LjM5SDIuNDJ2ODEuN2g4MS43di04MS43Wk0xODkuNjcsMTAzLjJoLTgxLjd2ODEuN2g4MS43di04MS43Wk0yOTUuMjIsMTAzLjJoLTgxLjd2ODEuN2g4MS43di04MS43Wk00MDAuNzcsMTAzLjJoLTgxLjd2ODEuN2g4MS43di04MS43Wk00MDAuNzcsMGgtODEuN3Y4MS43aDgxLjdWMFoiIGNsYXNzPSJjbHMtMSIvPiYjeGE7PC9zdmc+;" vertex="1" parent="1">
          <mxGeometry x="534" y="435" width="38" height="30" as="geometry" />
        </mxCell>
        <mxCell id="48x9F1mXmifq3sj9QLIl-34" value="" style="endArrow=none;dashed=1;html=1;rounded=0;" edge="1" parent="1" target="48x9F1mXmifq3sj9QLIl-15">
          <mxGeometry width="50" height="50" relative="1" as="geometry">
            <mxPoint x="410" y="588" as="sourcePoint" />
            <mxPoint x="482" y="588" as="targetPoint" />
          </mxGeometry>
        </mxCell>
      </root>
    </mxGraphModel>
  </diagram>
</mxfile>
